<svg width="24" height="24" viewBox="0 0 24 24" fill="none" xmlns="http://www.w3.org/2000/svg">
<path d="M22 16.92V19.92C22 20.4704 21.7893 20.9987 21.4142 21.3738C21.0391 21.7489 20.5109 21.9596 19.96 21.96C16.4 22.19 12.94 21.38 9.91 19.64C7.07 18.02 4.71 15.66 3.09 12.82C1.34 9.78 0.53 6.31 0.77 2.74C0.770388 2.19056 0.980772 1.66336 1.35526 1.28887C1.72975 0.914384 2.25695 0.704 2.807 0.703333L5.807 0.703333C6.79685 0.694669 7.64641 1.41571 7.807 2.39C7.93 3.23 8.127 4.05 8.397 4.84C8.72339 5.83702 8.48564 6.93255 7.777 7.64L6.697 8.72C8.18747 11.6438 10.5862 14.0425 13.51 15.533L14.59 14.453C15.2975 13.7444 16.393 13.5066 17.39 13.833C18.18 14.103 19 14.3 19.84 14.423C20.8324 14.5853 21.5614 15.4536 21.54 16.46L22 16.92Z" stroke="currentColor" stroke-width="2" stroke-linecap="round" stroke-linejoin="round"/>
</svg>